# xmcd
#
# Track frame offsets: 
#        150
#        2674
#        19540
#        45803
#        63411
#        96372
#
# Disc length: 1768 seconds
#
# Revision: 0
# Processed by: cddbd v1.5.2PL0 Copyright (c) Steve Scherf et al.
# Submitted via: ExactAudioCopy v0.95b3
#
DISCID=3906e606
DTITLE=Stevie Ray Vaughan and Double Trouble  - The Boxed Set [CD4]
DTITLE=FLAC
DYEAR=1900
DGENRE=
TTITLE0=Introduction (live)
TTITLE1=May I Have A Talk With You (live)
TTITLE2=Mary Had A Little Lamb (live)
TTITLE3=Look At Little Sister (live)
TTITLE4=Couldn't Stand The Weather (live)
TTITLE5=Voodoo Child (Slight Return)(live)
EXTD=
EXTT0=
EXTT1=
EXTT2=
EXTT3=
EXTT4=
EXTT5=
PLAYORDER=
